# xmcd
#
# Track frame offsets: 
#        150
#        45587
#        72362
#        99662
#        143625
#        184187
#        213962
#        236237
#
# Disc length: 3344 seconds
#
# Revision: 5
# Processed by: cddbd v1.5.2PL0 Copyright (c) Steve Scherf et al.
# Submitted via: ExactAudioCopy v0.95b4
#
DISCID=720d0e08
DTITLE=Mstislav Rostropovich (cello);Berliner Philharmoniker;Leningrad
DTITLE=Philharmonic Orchestra;Boston Symphony Orchestra - - Rostropovi
DTITLE=ch: Mastercellist, CD 2
DYEAR=2002
DGENRE=Classical
TTITLE0=Rachmaninov: Cello Sonata in G minor, op.18 - 1. Lento - Alleg
TTITLE0=ro moderato
TTITLE1=Rachmaninov: Cello Sonata in G minor, op.18 - 2. Allegro scher
TTITLE1=zando
TTITLE2=Rachmaninov: Cello Sonata in G minor, op.18 - 3. Andante
TTITLE3=Rachmaninov: Cello Sonata in G minor, op.18 - 4. Allegro mosso
TTITLE4=Chopin: Introduction and Polonaise, op.3
TTITLE5=Rachmaninov: Vocalise, op.34 no.14
TTITLE6=Schubert: Impromptu in G-flat major, D.899 no.3 (arr. Heifetz/
TTITLE6=Rostropovich)
TTITLE7=Schumann: Träumerei
EXTD=
EXTT0=
EXTT1=
EXTT2=
EXTT3=
EXTT4=
EXTT5=
EXTT6=
EXTT7=
PLAYORDER=
